  0
SECTION
  2
HEADER
  9
$ANGBASE
  50
0.0
  9
$ANGDIR
  70
  1
  9
$MEASUREMENT
  70
0
  0
ENDSEC
  0
SECTION
  2
TABLES
  0
TABLE
  2
LTYPE
  70
4
  0
LTYPE
  5
40F
  2
CONTINUOUS
  70
0
  3
Solid line
  72
65
  73
0
  40
0.0
  0
LTYPE
  5
410
  2
DASHDOT
 70
0
  3
Dash Dot ____ _ ____ _
 72
65
 73
4
 40
2.0
 49
1.25
 49
-0.25
 49
0.25
 49
-0.25
  0
LTYPE
  5
411
  2
DASHED
 70
0
  3
Dashed __ __ __ __ __
 72
65
 73
2
 40
0.75
 49
0.5
 49
-0.25
  0
LTYPE
  5
43B
  2
DOTTED
 70
0
  3
Dotted .  .  .  .
 72
65
 73
2
 40
0.2
 49
0.0
 49
-0.2
  0
ENDTAB
  0
TABLE
  2
STYLE
  70
4
  0
STYLE
  2
KICAD
  70
0
  40
0
  41
1
  42
1
  50
0
  71
0
  3
isocp.shx
  0
STYLE
  2
KICADB
  70
0
  40
0
  41
1
  42
1
  50
0
  71
0
  3
isocp.shx
  0
STYLE
  2
KICADI
  70
0
  40
0
  41
1
  42
1
  50
15
  71
0
  3
isocp.shx
  0
STYLE
  2
KICADBI
  70
0
  40
0
  41
1
  42
1
  50
15
  71
0
  3
isocp.shx
  0
ENDTAB
  0
TABLE
  2
LAYER
  70
30
  0
LAYER
  2
BLACK
  70
0
  62
7
  6
CONTINUOUS
  0
LAYER
  2
GRAY1
  70
0
  62
251
  6
CONTINUOUS
  0
LAYER
  2
GRAY2
  70
0
  62
8
  6
CONTINUOUS
  0
LAYER
  2
GRAY3
  70
0
  62
9
  6
CONTINUOUS
  0
LAYER
  2
WHITE
  70
0
  62
7
  6
CONTINUOUS
  0
LAYER
  2
LYELLOW
  70
0
  62
51
  6
CONTINUOUS
  0
LAYER
  2
BLUE1
  70
0
  62
178
  6
CONTINUOUS
  0
LAYER
  2
GREEN1
  70
0
  62
98
  6
CONTINUOUS
  0
LAYER
  2
CYAN1
  70
0
  62
138
  6
CONTINUOUS
  0
LAYER
  2
RED1
  70
0
  62
18
  6
CONTINUOUS
  0
LAYER
  2
MAGENTA1
  70
0
  62
228
  6
CONTINUOUS
  0
LAYER
  2
BROWN1
  70
0
  62
58
  6
CONTINUOUS
  0
LAYER
  2
BLUE2
  70
0
  62
5
  6
CONTINUOUS
  0
LAYER
  2
GREEN2
  70
0
  62
3
  6
CONTINUOUS
  0
LAYER
  2
CYAN2
  70
0
  62
4
  6
CONTINUOUS
  0
LAYER
  2
RED2
  70
0
  62
1
  6
CONTINUOUS
  0
LAYER
  2
MAGENTA2
  70
0
  62
6
  6
CONTINUOUS
  0
LAYER
  2
BROWN2
  70
0
  62
54
  6
CONTINUOUS
  0
LAYER
  2
BLUE3
  70
0
  62
171
  6
CONTINUOUS
  0
LAYER
  2
GREEN3
  70
0
  62
91
  6
CONTINUOUS
  0
LAYER
  2
CYAN3
  70
0
  62
131
  6
CONTINUOUS
  0
LAYER
  2
RED3
  70
0
  62
11
  6
CONTINUOUS
  0
LAYER
  2
MAGENTA3
  70
0
  62
221
  6
CONTINUOUS
  0
LAYER
  2
YELLOW3
  70
0
  62
2
  6
CONTINUOUS
  0
LAYER
  2
BLUE4
  70
0
  62
5
  6
CONTINUOUS
  0
LAYER
  2
GREEN4
  70
0
  62
3
  6
CONTINUOUS
  0
LAYER
  2
CYAN4
  70
0
  62
4
  6
CONTINUOUS
  0
LAYER
  2
RED4
  70
0
  62
1
  6
CONTINUOUS
  0
LAYER
  2
MAGENTA4
  70
0
  62
6
  6
CONTINUOUS
  0
LAYER
  2
YELLOW4
  70
0
  62
2
  6
CONTINUOUS
  0
ENDTAB
  0
ENDSEC
  0
SECTION
  2
ENTITIES
0
LINE
8
BLACK
6
CONTINUOUS
10
154.288
20
-90.5773
11
154.301
21
-90.5773
0
LINE
8
BLACK
6
CONTINUOUS
10
154.301
20
-90.5773
11
154.313
21
-90.5818
0
LINE
8
BLACK
6
CONTINUOUS
10
154.313
20
-90.5818
11
154.326
21
-90.584
0
LINE
8
BLACK
6
CONTINUOUS
10
154.326
20
-90.584
11
154.338
21
-90.5906
0
LINE
8
BLACK
6
CONTINUOUS
10
154.338
20
-90.5906
11
154.35
21
-90.5951
0
LINE
8
BLACK
6
CONTINUOUS
10
154.35
20
-90.5951
11
154.36
21
-90.6035
0
LINE
8
BLACK
6
CONTINUOUS
10
154.36
20
-90.6035
11
154.371
21
-90.6101
0
LINE
8
BLACK
6
CONTINUOUS
10
154.371
20
-90.6101
11
154.38
21
-90.6201
0
LINE
8
BLACK
6
CONTINUOUS
10
154.38
20
-90.6201
11
154.39
21
-90.6286
0
LINE
8
BLACK
6
CONTINUOUS
10
154.39
20
-90.6286
11
154.396
21
-90.6399
0
LINE
8
BLACK
6
CONTINUOUS
10
154.396
20
-90.6399
11
154.405
21
-90.65
0
LINE
8
BLACK
6
CONTINUOUS
10
154.405
20
-90.65
11
154.409
21
-90.6623
0
LINE
8
BLACK
6
CONTINUOUS
10
154.409
20
-90.6623
11
154.416
21
-90.6737
0
LINE
8
BLACK
6
CONTINUOUS
10
154.416
20
-90.6737
11
154.418
21
-90.6866
0
LINE
8
BLACK
6
CONTINUOUS
10
154.418
20
-90.6866
11
154.423
21
-90.699
0
LINE
8
BLACK
6
CONTINUOUS
10
154.423
20
-90.699
11
154.423
21
-90.7121
0
LINE
8
BLACK
6
CONTINUOUS
10
154.423
20
-90.7121
11
154.425
21
-90.725
0
LINE
8
BLACK
6
CONTINUOUS
10
154.425
20
-90.725
11
154.425
21
-122.071
0
LINE
8
BLACK
6
CONTINUOUS
10
154.425
20
-122.071
11
154.425
21
-122.071
0
LINE
8
BLACK
6
CONTINUOUS
10
154.425
20
-122.071
11
154.425
21
-122.275
0
LINE
8
BLACK
6
CONTINUOUS
10
154.425
20
-122.275
11
154.423
21
-122.288
0
LINE
8
BLACK
6
CONTINUOUS
10
154.423
20
-122.288
11
154.423
21
-122.301
0
LINE
8
BLACK
6
CONTINUOUS
10
154.423
20
-122.301
11
154.418
21
-122.313
0
LINE
8
BLACK
6
CONTINUOUS
10
154.418
20
-122.313
11
154.416
21
-122.326
0
LINE
8
BLACK
6
CONTINUOUS
10
154.416
20
-122.326
11
154.409
21
-122.338
0
LINE
8
BLACK
6
CONTINUOUS
10
154.409
20
-122.338
11
154.405
21
-122.35
0
LINE
8
BLACK
6
CONTINUOUS
10
154.405
20
-122.35
11
154.396
21
-122.36
0
LINE
8
BLACK
6
CONTINUOUS
10
154.396
20
-122.36
11
154.39
21
-122.371
0
LINE
8
BLACK
6
CONTINUOUS
10
154.39
20
-122.371
11
154.38
21
-122.38
0
LINE
8
BLACK
6
CONTINUOUS
10
154.38
20
-122.38
11
154.371
21
-122.39
0
LINE
8
BLACK
6
CONTINUOUS
10
154.371
20
-122.39
11
154.36
21
-122.396
0
LINE
8
BLACK
6
CONTINUOUS
10
154.36
20
-122.396
11
154.35
21
-122.405
0
LINE
8
BLACK
6
CONTINUOUS
10
154.35
20
-122.405
11
154.338
21
-122.409
0
LINE
8
BLACK
6
CONTINUOUS
10
154.338
20
-122.409
11
154.326
21
-122.416
0
LINE
8
BLACK
6
CONTINUOUS
10
154.326
20
-122.416
11
154.313
21
-122.418
0
LINE
8
BLACK
6
CONTINUOUS
10
154.313
20
-122.418
11
154.301
21
-122.423
0
LINE
8
BLACK
6
CONTINUOUS
10
154.301
20
-122.423
11
154.288
21
-122.423
0
LINE
8
BLACK
6
CONTINUOUS
10
154.288
20
-122.423
11
154.275
21
-122.425
0
LINE
8
BLACK
6
CONTINUOUS
10
154.275
20
-122.425
11
124.578
21
-122.425
0
LINE
8
BLACK
6
CONTINUOUS
10
124.578
20
-122.425
11
124.56
21
-122.422
0
LINE
8
BLACK
6
CONTINUOUS
10
124.56
20
-122.422
11
124.542
21
-122.421
0
LINE
8
BLACK
6
CONTINUOUS
10
124.542
20
-122.421
11
124.535
21
-122.417
0
LINE
8
BLACK
6
CONTINUOUS
10
124.535
20
-122.417
11
124.526
21
-122.416
0
LINE
8
BLACK
6
CONTINUOUS
10
124.526
20
-122.416
11
124.511
21
-122.407
0
LINE
8
BLACK
6
CONTINUOUS
10
124.511
20
-122.407
11
124.503
21
-122.404
0
LINE
8
BLACK
6
CONTINUOUS
10
124.503
20
-122.404
11
124.485
21
-122.4
0
LINE
8
BLACK
6
CONTINUOUS
10
124.485
20
-122.4
11
121.85
21
-122.4
0
LINE
8
BLACK
6
CONTINUOUS
10
121.85
20
-122.4
11
121.837
21
-122.398
0
LINE
8
BLACK
6
CONTINUOUS
10
121.837
20
-122.398
11
121.824
21
-122.398
0
LINE
8
BLACK
6
CONTINUOUS
10
121.824
20
-122.398
11
121.812
21
-122.393
0
LINE
8
BLACK
6
CONTINUOUS
10
121.812
20
-122.393
11
121.799
21
-122.391
0
LINE
8
BLACK
6
CONTINUOUS
10
121.799
20
-122.391
11
121.787
21
-122.384
0
LINE
8
BLACK
6
CONTINUOUS
10
121.787
20
-122.384
11
121.775
21
-122.38
0
LINE
8
BLACK
6
CONTINUOUS
10
121.775
20
-122.38
11
121.765
21
-122.371
0
LINE
8
BLACK
6
CONTINUOUS
10
121.765
20
-122.371
11
121.754
21
-122.365
0
LINE
8
BLACK
6
CONTINUOUS
10
121.754
20
-122.365
11
121.745
21
-122.355
0
LINE
8
BLACK
6
CONTINUOUS
10
121.745
20
-122.355
11
121.735
21
-122.346
0
LINE
8
BLACK
6
CONTINUOUS
10
121.735
20
-122.346
11
121.729
21
-122.335
0
LINE
8
BLACK
6
CONTINUOUS
10
121.729
20
-122.335
11
121.72
21
-122.325
0
LINE
8
BLACK
6
CONTINUOUS
10
121.72
20
-122.325
11
121.716
21
-122.313
0
LINE
8
BLACK
6
CONTINUOUS
10
121.716
20
-122.313
11
121.709
21
-122.301
0
LINE
8
BLACK
6
CONTINUOUS
10
121.709
20
-122.301
11
121.707
21
-122.288
0
LINE
8
BLACK
6
CONTINUOUS
10
121.707
20
-122.288
11
121.702
21
-122.276
0
LINE
8
BLACK
6
CONTINUOUS
10
121.702
20
-122.276
11
121.702
21
-122.263
0
LINE
8
BLACK
6
CONTINUOUS
10
121.702
20
-122.263
11
121.7
21
-122.25
0
LINE
8
BLACK
6
CONTINUOUS
10
121.7
20
-122.25
11
121.7
21
-119.2
0
LINE
8
BLACK
6
CONTINUOUS
10
121.7
20
-119.2
11
121.702
21
-119.187
0
LINE
8
BLACK
6
CONTINUOUS
10
121.702
20
-119.187
11
121.702
21
-119.174
0
LINE
8
BLACK
6
CONTINUOUS
10
121.702
20
-119.174
11
121.707
21
-119.162
0
LINE
8
BLACK
6
CONTINUOUS
10
121.707
20
-119.162
11
121.709
21
-119.149
0
LINE
8
BLACK
6
CONTINUOUS
10
121.709
20
-119.149
11
121.716
21
-119.137
0
LINE
8
BLACK
6
CONTINUOUS
10
121.716
20
-119.137
11
121.72
21
-119.125
0
LINE
8
BLACK
6
CONTINUOUS
10
121.72
20
-119.125
11
121.729
21
-119.115
0
LINE
8
BLACK
6
CONTINUOUS
10
121.729
20
-119.115
11
121.735
21
-119.104
0
LINE
8
BLACK
6
CONTINUOUS
10
121.735
20
-119.104
11
121.745
21
-119.095
0
LINE
8
BLACK
6
CONTINUOUS
10
121.745
20
-119.095
11
121.754
21
-119.085
0
LINE
8
BLACK
6
CONTINUOUS
10
121.754
20
-119.085
11
121.765
21
-119.079
0
LINE
8
BLACK
6
CONTINUOUS
10
121.765
20
-119.079
11
121.775
21
-119.07
0
LINE
8
BLACK
6
CONTINUOUS
10
121.775
20
-119.07
11
121.787
21
-119.066
0
LINE
8
BLACK
6
CONTINUOUS
10
121.787
20
-119.066
11
121.799
21
-119.059
0
LINE
8
BLACK
6
CONTINUOUS
10
121.799
20
-119.059
11
121.812
21
-119.057
0
LINE
8
BLACK
6
CONTINUOUS
10
121.812
20
-119.057
11
121.824
21
-119.052
0
LINE
8
BLACK
6
CONTINUOUS
10
121.824
20
-119.052
11
121.837
21
-119.052
0
LINE
8
BLACK
6
CONTINUOUS
10
121.837
20
-119.052
11
121.85
21
-119.05
0
LINE
8
BLACK
6
CONTINUOUS
10
121.85
20
-119.05
11
122.235
21
-119.05
0
LINE
8
BLACK
6
CONTINUOUS
10
122.235
20
-119.05
11
122.44
21
-119.009
0
LINE
8
BLACK
6
CONTINUOUS
10
122.44
20
-119.009
11
122.601
21
-118.901
0
LINE
8
BLACK
6
CONTINUOUS
10
122.601
20
-118.901
11
122.709
21
-118.74
0
LINE
8
BLACK
6
CONTINUOUS
10
122.709
20
-118.74
11
122.75
21
-118.535
0
LINE
8
BLACK
6
CONTINUOUS
10
122.75
20
-118.535
11
122.75
21
-117.665
0
LINE
8
BLACK
6
CONTINUOUS
10
122.75
20
-117.665
11
122.709
21
-117.46
0
LINE
8
BLACK
6
CONTINUOUS
10
122.709
20
-117.46
11
122.601
21
-117.299
0
LINE
8
BLACK
6
CONTINUOUS
10
122.601
20
-117.299
11
122.51
21
-117.237
0
LINE
8
BLACK
6
CONTINUOUS
10
122.51
20
-117.237
11
122.504
21
-117.232
0
LINE
8
BLACK
6
CONTINUOUS
10
122.504
20
-117.232
11
122.497
21
-117.228
0
LINE
8
BLACK
6
CONTINUOUS
10
122.497
20
-117.228
11
122.485
21
-117.214
0
LINE
8
BLACK
6
CONTINUOUS
10
122.485
20
-117.214
11
122.472
21
-117.201
0
LINE
8
BLACK
6
CONTINUOUS
10
122.472
20
-117.201
11
122.469
21
-117.194
0
LINE
8
BLACK
6
CONTINUOUS
10
122.469
20
-117.194
11
122.464
21
-117.188
0
LINE
8
BLACK
6
CONTINUOUS
10
122.464
20
-117.188
11
122.457
21
-117.171
0
LINE
8
BLACK
6
CONTINUOUS
10
122.457
20
-117.171
11
122.449
21
-117.155
0
LINE
8
BLACK
6
CONTINUOUS
10
122.449
20
-117.155
11
122.449
21
-117.147
0
LINE
8
BLACK
6
CONTINUOUS
10
122.449
20
-117.147
11
122.446
21
-117.139
0
LINE
8
BLACK
6
CONTINUOUS
10
122.446
20
-117.139
11
122.446
21
-117.121
0
LINE
8
BLACK
6
CONTINUOUS
10
122.446
20
-117.121
11
122.444
21
-117.103
0
LINE
8
BLACK
6
CONTINUOUS
10
122.444
20
-117.103
11
122.446
21
-117.095
0
LINE
8
BLACK
6
CONTINUOUS
10
122.446
20
-117.095
11
122.446
21
-117.087
0
LINE
8
BLACK
6
CONTINUOUS
10
122.446
20
-117.087
11
122.452
21
-117.07
0
LINE
8
BLACK
6
CONTINUOUS
10
122.452
20
-117.07
11
122.456
21
-117.052
0
LINE
8
BLACK
6
CONTINUOUS
10
122.456
20
-117.052
11
122.461
21
-117.045
0
LINE
8
BLACK
6
CONTINUOUS
10
122.461
20
-117.045
11
122.464
21
-117.038
0
LINE
8
BLACK
6
CONTINUOUS
10
122.464
20
-117.038
11
122.475
21
-117.024
0
LINE
8
BLACK
6
CONTINUOUS
10
122.475
20
-117.024
11
122.485
21
-117.009
0
LINE
8
BLACK
6
CONTINUOUS
10
122.485
20
-117.009
11
122.492
21
-117.004
0
LINE
8
BLACK
6
CONTINUOUS
10
122.492
20
-117.004
11
122.497
21
-116.998
0
LINE
8
BLACK
6
CONTINUOUS
10
122.497
20
-116.998
11
122.513
21
-116.989
0
LINE
8
BLACK
6
CONTINUOUS
10
122.513
20
-116.989
11
122.527
21
-116.978
0
LINE
8
BLACK
6
CONTINUOUS
10
122.527
20
-116.978
11
122.535
21
-116.976
0
LINE
8
BLACK
6
CONTINUOUS
10
122.535
20
-116.976
11
122.542
21
-116.972
0
LINE
8
BLACK
6
CONTINUOUS
10
122.542
20
-116.972
11
122.56
21
-116.969
0
LINE
8
BLACK
6
CONTINUOUS
10
122.56
20
-116.969
11
122.577
21
-116.964
0
LINE
8
BLACK
6
CONTINUOUS
10
122.577
20
-116.964
11
122.585
21
-116.964
0
LINE
8
BLACK
6
CONTINUOUS
10
122.585
20
-116.964
11
122.593
21
-116.963
0
LINE
8
BLACK
6
CONTINUOUS
10
122.593
20
-116.963
11
123.285
21
-116.963
0
LINE
8
BLACK
6
CONTINUOUS
10
123.285
20
-116.963
11
123.495
21
-116.921
0
LINE
8
BLACK
6
CONTINUOUS
10
123.495
20
-116.921
11
123.66
21
-116.81
0
LINE
8
BLACK
6
CONTINUOUS
10
123.66
20
-116.81
11
123.675
21
-116.788
0
LINE
8
BLACK
6
CONTINUOUS
10
123.675
20
-116.788
11
123.687
21
-116.777
0
LINE
8
BLACK
6
CONTINUOUS
10
123.687
20
-116.777
11
123.696
21
-116.763
0
LINE
8
BLACK
6
CONTINUOUS
10
123.696
20
-116.763
11
123.704
21
-116.758
0
LINE
8
BLACK
6
CONTINUOUS
10
123.704
20
-116.758
11
123.711
21
-116.751
0
LINE
8
BLACK
6
CONTINUOUS
10
123.711
20
-116.751
11
123.726
21
-116.743
0
LINE
8
BLACK
6
CONTINUOUS
10
123.726
20
-116.743
11
123.74
21
-116.734
0
LINE
8
BLACK
6
CONTINUOUS
10
123.74
20
-116.734
11
123.749
21
-116.732
0
LINE
8
BLACK
6
CONTINUOUS
10
123.749
20
-116.732
11
123.758
21
-116.728
0
LINE
8
BLACK
6
CONTINUOUS
10
123.758
20
-116.728
11
123.774
21
-116.726
0
LINE
8
BLACK
6
CONTINUOUS
10
123.774
20
-116.726
11
123.79
21
-116.722
0
LINE
8
BLACK
6
CONTINUOUS
10
123.79
20
-116.722
11
123.8
21
-116.723
0
LINE
8
BLACK
6
CONTINUOUS
10
123.8
20
-116.723
11
123.81
21
-116.722
0
LINE
8
BLACK
6
CONTINUOUS
10
123.81
20
-116.722
11
123.826
21
-116.726
0
LINE
8
BLACK
6
CONTINUOUS
10
123.826
20
-116.726
11
123.842
21
-116.728
0
LINE
8
BLACK
6
CONTINUOUS
10
123.842
20
-116.728
11
123.851
21
-116.732
0
LINE
8
BLACK
6
CONTINUOUS
10
123.851
20
-116.732
11
123.86
21
-116.734
0
LINE
8
BLACK
6
CONTINUOUS
10
123.86
20
-116.734
11
123.874
21
-116.743
0
LINE
8
BLACK
6
CONTINUOUS
10
123.874
20
-116.743
11
123.889
21
-116.751
0
LINE
8
BLACK
6
CONTINUOUS
10
123.889
20
-116.751
11
123.896
21
-116.758
0
LINE
8
BLACK
6
CONTINUOUS
10
123.896
20
-116.758
11
123.904
21
-116.763
0
LINE
8
BLACK
6
CONTINUOUS
10
123.904
20
-116.763
11
123.913
21
-116.777
0
LINE
8
BLACK
6
CONTINUOUS
10
123.913
20
-116.777
11
123.925
21
-116.788
0
LINE
8
BLACK
6
CONTINUOUS
10
123.925
20
-116.788
11
123.94
21
-116.81
0
LINE
8
BLACK
6
CONTINUOUS
10
123.94
20
-116.81
11
124.105
21
-116.921
0
LINE
8
BLACK
6
CONTINUOUS
10
124.105
20
-116.921
11
124.315
21
-116.963
0
LINE
8
BLACK
6
CONTINUOUS
10
124.315
20
-116.963
11
125.485
21
-116.963
0
LINE
8
BLACK
6
CONTINUOUS
10
125.485
20
-116.963
11
125.695
21
-116.921
0
LINE
8
BLACK
6
CONTINUOUS
10
125.695
20
-116.921
11
125.865
21
-116.807
0
LINE
8
BLACK
6
CONTINUOUS
10
125.865
20
-116.807
11
125.871
21
-116.801
0
LINE
8
BLACK
6
CONTINUOUS
10
125.871
20
-116.801
11
125.885
21
-116.785
0
LINE
8
BLACK
6
CONTINUOUS
10
125.885
20
-116.785
11
125.889
21
-116.783
0
LINE
8
BLACK
6
CONTINUOUS
10
125.889
20
-116.783
11
125.892
21
-116.779
0
LINE
8
BLACK
6
CONTINUOUS
10
125.892
20
-116.779
11
125.911
21
-116.77
0
LINE
8
BLACK
6
CONTINUOUS
10
125.911
20
-116.77
11
125.93
21
-116.759
0
LINE
8
BLACK
6
CONTINUOUS
10
125.93
20
-116.759
11
125.935
21
-116.758
0
LINE
8
BLACK
6
CONTINUOUS
10
125.935
20
-116.758
11
125.939
21
-116.756
0
LINE
8
BLACK
6
CONTINUOUS
10
125.939
20
-116.756
11
125.96
21
-116.754
0
LINE
8
BLACK
6
CONTINUOUS
10
125.96
20
-116.754
11
125.981
21
-116.75
0
LINE
8
BLACK
6
CONTINUOUS
10
125.981
20
-116.75
11
147.087
21
-116.75
0
LINE
8
BLACK
6
CONTINUOUS
10
147.087
20
-116.75
11
147.097
21
-116.752
0
LINE
8
BLACK
6
CONTINUOUS
10
147.097
20
-116.752
11
147.106
21
-116.751
0
LINE
8
BLACK
6
CONTINUOUS
10
147.106
20
-116.751
11
147.122
21
-116.756
0
LINE
8
BLACK
6
CONTINUOUS
10
147.122
20
-116.756
11
147.138
21
-116.759
0
LINE
8
BLACK
6
CONTINUOUS
10
147.138
20
-116.759
11
147.147
21
-116.764
0
LINE
8
BLACK
6
CONTINUOUS
10
147.147
20
-116.764
11
147.156
21
-116.767
0
LINE
8
BLACK
6
CONTINUOUS
10
147.156
20
-116.767
11
147.169
21
-116.777
0
LINE
8
BLACK
6
CONTINUOUS
10
147.169
20
-116.777
11
147.183
21
-116.785
0
LINE
8
BLACK
6
CONTINUOUS
10
147.183
20
-116.785
11
147.19
21
-116.793
0
LINE
8
BLACK
6
CONTINUOUS
10
147.19
20
-116.793
11
147.197
21
-116.799
0
LINE
8
BLACK
6
CONTINUOUS
10
147.197
20
-116.799
11
147.206
21
-116.812
0
LINE
8
BLACK
6
CONTINUOUS
10
147.206
20
-116.812
11
147.217
21
-116.825
0
LINE
8
BLACK
6
CONTINUOUS
10
147.217
20
-116.825
11
147.22
21
-116.834
0
LINE
8
BLACK
6
CONTINUOUS
10
147.22
20
-116.834
11
147.225
21
-116.843
0
LINE
8
BLACK
6
CONTINUOUS
10
147.225
20
-116.843
11
147.228
21
-116.85
0
LINE
8
BLACK
6
CONTINUOUS
10
147.228
20
-116.85
11
147.65
21
-117.272
0
LINE
8
BLACK
6
CONTINUOUS
10
147.65
20
-117.272
11
148.202
21
-117.5
0
LINE
8
BLACK
6
CONTINUOUS
10
148.202
20
-117.5
11
148.798
21
-117.5
0
LINE
8
BLACK
6
CONTINUOUS
10
148.798
20
-117.5
11
149.35
21
-117.272
0
LINE
8
BLACK
6
CONTINUOUS
10
149.35
20
-117.272
11
149.772
21
-116.85
0
LINE
8
BLACK
6
CONTINUOUS
10
149.772
20
-116.85
11
150
21
-116.298
0
LINE
8
BLACK
6
CONTINUOUS
10
150
20
-116.298
11
150
21
-115.702
0
LINE
8
BLACK
6
CONTINUOUS
10
150
20
-115.702
11
149.772
21
-115.15
0
LINE
8
BLACK
6
CONTINUOUS
10
149.772
20
-115.15
11
149.35
21
-114.728
0
LINE
8
BLACK
6
CONTINUOUS
10
149.35
20
-114.728
11
148.798
21
-114.5
0
LINE
8
BLACK
6
CONTINUOUS
10
148.798
20
-114.5
11
148.202
21
-114.5
0
LINE
8
BLACK
6
CONTINUOUS
10
148.202
20
-114.5
11
147.65
21
-114.728
0
LINE
8
BLACK
6
CONTINUOUS
10
147.65
20
-114.728
11
147.228
21
-115.15
0
LINE
8
BLACK
6
CONTINUOUS
10
147.228
20
-115.15
11
147.225
21
-115.157
0
LINE
8
BLACK
6
CONTINUOUS
10
147.225
20
-115.157
11
147.22
21
-115.166
0
LINE
8
BLACK
6
CONTINUOUS
10
147.22
20
-115.166
11
147.217
21
-115.175
0
LINE
8
BLACK
6
CONTINUOUS
10
147.217
20
-115.175
11
147.206
21
-115.188
0
LINE
8
BLACK
6
CONTINUOUS
10
147.206
20
-115.188
11
147.197
21
-115.201
0
LINE
8
BLACK
6
CONTINUOUS
10
147.197
20
-115.201
11
147.19
21
-115.207
0
LINE
8
BLACK
6
CONTINUOUS
10
147.19
20
-115.207
11
147.183
21
-115.215
0
LINE
8
BLACK
6
CONTINUOUS
10
147.183
20
-115.215
11
147.169
21
-115.223
0
LINE
8
BLACK
6
CONTINUOUS
10
147.169
20
-115.223
11
147.156
21
-115.233
0
LINE
8
BLACK
6
CONTINUOUS
10
147.156
20
-115.233
11
147.147
21
-115.236
0
LINE
8
BLACK
6
CONTINUOUS
10
147.147
20
-115.236
11
147.138
21
-115.241
0
LINE
8
BLACK
6
CONTINUOUS
10
147.138
20
-115.241
11
147.122
21
-115.244
0
LINE
8
BLACK
6
CONTINUOUS
10
147.122
20
-115.244
11
147.106
21
-115.249
0
LINE
8
BLACK
6
CONTINUOUS
10
147.106
20
-115.249
11
147.097
21
-115.248
0
LINE
8
BLACK
6
CONTINUOUS
10
147.097
20
-115.248
11
147.087
21
-115.25
0
LINE
8
BLACK
6
CONTINUOUS
10
147.087
20
-115.25
11
125.981
21
-115.25
0
LINE
8
BLACK
6
CONTINUOUS
10
125.981
20
-115.25
11
125.96
21
-115.246
0
LINE
8
BLACK
6
CONTINUOUS
10
125.96
20
-115.246
11
125.939
21
-115.244
0
LINE
8
BLACK
6
CONTINUOUS
10
125.939
20
-115.244
11
125.935
21
-115.242
0
LINE
8
BLACK
6
CONTINUOUS
10
125.935
20
-115.242
11
125.93
21
-115.241
0
LINE
8
BLACK
6
CONTINUOUS
10
125.93
20
-115.241
11
125.911
21
-115.23
0
LINE
8
BLACK
6
CONTINUOUS
10
125.911
20
-115.23
11
125.892
21
-115.221
0
LINE
8
BLACK
6
CONTINUOUS
10
125.892
20
-115.221
11
125.889
21
-115.217
0
LINE
8
BLACK
6
CONTINUOUS
10
125.889
20
-115.217
11
125.885
21
-115.215
0
LINE
8
BLACK
6
CONTINUOUS
10
125.885
20
-115.215
11
125.871
21
-115.199
0
LINE
8
BLACK
6
CONTINUOUS
10
125.871
20
-115.199
11
125.865
21
-115.193
0
LINE
8
BLACK
6
CONTINUOUS
10
125.865
20
-115.193
11
125.695
21
-115.079
0
LINE
8
BLACK
6
CONTINUOUS
10
125.695
20
-115.079
11
125.485
21
-115.037
0
LINE
8
BLACK
6
CONTINUOUS
10
125.485
20
-115.037
11
124.315
21
-115.037
0
LINE
8
BLACK
6
CONTINUOUS
10
124.315
20
-115.037
11
124.105
21
-115.079
0
LINE
8
BLACK
6
CONTINUOUS
10
124.105
20
-115.079
11
123.94
21
-115.19
0
LINE
8
BLACK
6
CONTINUOUS
10
123.94
20
-115.19
11
123.925
21
-115.212
0
LINE
8
BLACK
6
CONTINUOUS
10
123.925
20
-115.212
11
123.913
21
-115.223
0
LINE
8
BLACK
6
CONTINUOUS
10
123.913
20
-115.223
11
123.904
21
-115.237
0
LINE
8
BLACK
6
CONTINUOUS
10
123.904
20
-115.237
11
123.896
21
-115.242
0
LINE
8
BLACK
6
CONTINUOUS
10
123.896
20
-115.242
11
123.889
21
-115.249
0
LINE
8
BLACK
6
CONTINUOUS
10
123.889
20
-115.249
11
123.874
21
-115.257
0
LINE
8
BLACK
6
CONTINUOUS
10
123.874
20
-115.257
11
123.86
21
-115.266
0
LINE
8
BLACK
6
CONTINUOUS
10
123.86
20
-115.266
11
123.851
21
-115.268
0
LINE
8
BLACK
6
CONTINUOUS
10
123.851
20
-115.268
11
123.842
21
-115.272
0
LINE
8
BLACK
6
CONTINUOUS
10
123.842
20
-115.272
11
123.826
21
-115.274
0
LINE
8
BLACK
6
CONTINUOUS
10
123.826
20
-115.274
11
123.81
21
-115.278
0
LINE
8
BLACK
6
CONTINUOUS
10
123.81
20
-115.278
11
123.8
21
-115.277
0
LINE
8
BLACK
6
CONTINUOUS
10
123.8
20
-115.277
11
123.79
21
-115.278
0
LINE
8
BLACK
6
CONTINUOUS
10
123.79
20
-115.278
11
123.774
21
-115.274
0
LINE
8
BLACK
6
CONTINUOUS
10
123.774
20
-115.274
11
123.758
21
-115.272
0
LINE
8
BLACK
6
CONTINUOUS
10
123.758
20
-115.272
11
123.749
21
-115.268
0
LINE
8
BLACK
6
CONTINUOUS
10
123.749
20
-115.268
11
123.74
21
-115.266
0
LINE
8
BLACK
6
CONTINUOUS
10
123.74
20
-115.266
11
123.726
21
-115.257
0
LINE
8
BLACK
6
CONTINUOUS
10
123.726
20
-115.257
11
123.711
21
-115.249
0
LINE
8
BLACK
6
CONTINUOUS
10
123.711
20
-115.249
11
123.704
21
-115.242
0
LINE
8
BLACK
6
CONTINUOUS
10
123.704
20
-115.242
11
123.696
21
-115.237
0
LINE
8
BLACK
6
CONTINUOUS
10
123.696
20
-115.237
11
123.687
21
-115.223
0
LINE
8
BLACK
6
CONTINUOUS
10
123.687
20
-115.223
11
123.675
21
-115.212
0
LINE
8
BLACK
6
CONTINUOUS
10
123.675
20
-115.212
11
123.66
21
-115.19
0
LINE
8
BLACK
6
CONTINUOUS
10
123.66
20
-115.19
11
123.495
21
-115.079
0
LINE
8
BLACK
6
CONTINUOUS
10
123.495
20
-115.079
11
123.285
21
-115.037
0
LINE
8
BLACK
6
CONTINUOUS
10
123.285
20
-115.037
11
122.115
21
-115.037
0
LINE
8
BLACK
6
CONTINUOUS
10
122.115
20
-115.037
11
121.879
21
-115.084
0
LINE
8
BLACK
6
CONTINUOUS
10
121.879
20
-115.084
11
121.878
21
-115.084
0
LINE
8
BLACK
6
CONTINUOUS
10
121.878
20
-115.084
11
121.876
21
-115.085
0
LINE
8
BLACK
6
CONTINUOUS
10
121.876
20
-115.085
11
121.852
21
-115.085
0
LINE
8
BLACK
6
CONTINUOUS
10
121.852
20
-115.085
11
121.827
21
-115.085
0
LINE
8
BLACK
6
CONTINUOUS
10
121.827
20
-115.085
11
121.826
21
-115.085
0
LINE
8
BLACK
6
CONTINUOUS
10
121.826
20
-115.085
11
121.824
21
-115.085
0
LINE
8
BLACK
6
CONTINUOUS
10
121.824
20
-115.085
11
121.801
21
-115.076
0
LINE
8
BLACK
6
CONTINUOUS
10
121.801
20
-115.076
11
121.778
21
-115.069
0
LINE
8
BLACK
6
CONTINUOUS
10
121.778
20
-115.069
11
121.777
21
-115.067
0
LINE
8
BLACK
6
CONTINUOUS
10
121.777
20
-115.067
11
121.775
21
-115.067
0
LINE
8
BLACK
6
CONTINUOUS
10
121.775
20
-115.067
11
121.756
21
-115.051
0
LINE
8
BLACK
6
CONTINUOUS
10
121.756
20
-115.051
11
121.737
21
-115.036
0
LINE
8
BLACK
6
CONTINUOUS
10
121.737
20
-115.036
11
121.736
21
-115.034
0
LINE
8
BLACK
6
CONTINUOUS
10
121.736
20
-115.034
11
121.735
21
-115.033
0
LINE
8
BLACK
6
CONTINUOUS
10
121.735
20
-115.033
11
121.723
21
-115.012
0
LINE
8
BLACK
6
CONTINUOUS
10
121.723
20
-115.012
11
121.71
21
-114.991
0
LINE
8
BLACK
6
CONTINUOUS
10
121.71
20
-114.991
11
121.71
21
-114.99
0
LINE
8
BLACK
6
CONTINUOUS
10
121.71
20
-114.99
11
121.709
21
-114.988
0
LINE
8
BLACK
6
CONTINUOUS
10
121.709
20
-114.988
11
121.705
21
-114.964
0
LINE
8
BLACK
6
CONTINUOUS
10
121.705
20
-114.964
11
121.7
21
-114.94
0
LINE
8
BLACK
6
CONTINUOUS
10
121.7
20
-114.94
11
121.7
21
-114.939
0
LINE
8
BLACK
6
CONTINUOUS
10
121.7
20
-114.939
11
121.7
21
-114.937
0
LINE
8
BLACK
6
CONTINUOUS
10
121.7
20
-114.937
11
121.7
21
-104.959
0
LINE
8
BLACK
6
CONTINUOUS
10
121.7
20
-104.959
11
121.703
21
-104.942
0
LINE
8
BLACK
6
CONTINUOUS
10
121.703
20
-104.942
11
121.704
21
-104.924
0
LINE
8
BLACK
6
CONTINUOUS
10
121.704
20
-104.924
11
121.708
21
-104.916
0
LINE
8
BLACK
6
CONTINUOUS
10
121.708
20
-104.916
11
121.709
21
-104.908
0
LINE
8
BLACK
6
CONTINUOUS
10
121.709
20
-104.908
11
121.718
21
-104.893
0
LINE
8
BLACK
6
CONTINUOUS
10
121.718
20
-104.893
11
121.725
21
-104.876
0
LINE
8
BLACK
6
CONTINUOUS
10
121.725
20
-104.876
11
121.749
21
-104.84
0
LINE
8
BLACK
6
CONTINUOUS
10
121.749
20
-104.84
11
121.79
21
-104.635
0
LINE
8
BLACK
6
CONTINUOUS
10
121.79
20
-104.635
11
121.79
21
-104.165
0
LINE
8
BLACK
6
CONTINUOUS
10
121.79
20
-104.165
11
121.749
21
-103.96
0
LINE
8
BLACK
6
CONTINUOUS
10
121.749
20
-103.96
11
121.725
21
-103.924
0
LINE
8
BLACK
6
CONTINUOUS
10
121.725
20
-103.924
11
121.718
21
-103.907
0
LINE
8
BLACK
6
CONTINUOUS
10
121.718
20
-103.907
11
121.709
21
-103.892
0
LINE
8
BLACK
6
CONTINUOUS
10
121.709
20
-103.892
11
121.708
21
-103.884
0
LINE
8
BLACK
6
CONTINUOUS
10
121.708
20
-103.884
11
121.704
21
-103.876
0
LINE
8
BLACK
6
CONTINUOUS
10
121.704
20
-103.876
11
121.703
21
-103.858
0
LINE
8
BLACK
6
CONTINUOUS
10
121.703
20
-103.858
11
121.7
21
-103.841
0
LINE
8
BLACK
6
CONTINUOUS
10
121.7
20
-103.841
11
121.7
21
-90.725
0
LINE
8
BLACK
6
CONTINUOUS
10
121.7
20
-90.725
11
121.702
21
-90.7121
0
LINE
8
BLACK
6
CONTINUOUS
10
121.702
20
-90.7121
11
121.702
21
-90.699
0
LINE
8
BLACK
6
CONTINUOUS
10
121.702
20
-90.699
11
121.707
21
-90.6866
0
LINE
8
BLACK
6
CONTINUOUS
10
121.707
20
-90.6866
11
121.709
21
-90.6737
0
LINE
8
BLACK
6
CONTINUOUS
10
121.709
20
-90.6737
11
121.716
21
-90.6623
0
LINE
8
BLACK
6
CONTINUOUS
10
121.716
20
-90.6623
11
121.72
21
-90.65
0
LINE
8
BLACK
6
CONTINUOUS
10
121.72
20
-90.65
11
121.729
21
-90.6399
0
LINE
8
BLACK
6
CONTINUOUS
10
121.729
20
-90.6399
11
121.735
21
-90.6286
0
LINE
8
BLACK
6
CONTINUOUS
10
121.735
20
-90.6286
11
121.745
21
-90.6201
0
LINE
8
BLACK
6
CONTINUOUS
10
121.745
20
-90.6201
11
121.754
21
-90.6101
0
LINE
8
BLACK
6
CONTINUOUS
10
121.754
20
-90.6101
11
121.765
21
-90.6035
0
LINE
8
BLACK
6
CONTINUOUS
10
121.765
20
-90.6035
11
121.775
21
-90.5951
0
LINE
8
BLACK
6
CONTINUOUS
10
121.775
20
-90.5951
11
121.787
21
-90.5906
0
LINE
8
BLACK
6
CONTINUOUS
10
121.787
20
-90.5906
11
121.799
21
-90.584
0
LINE
8
BLACK
6
CONTINUOUS
10
121.799
20
-90.584
11
121.812
21
-90.5818
0
LINE
8
BLACK
6
CONTINUOUS
10
121.812
20
-90.5818
11
121.824
21
-90.5773
0
LINE
8
BLACK
6
CONTINUOUS
10
121.824
20
-90.5773
11
121.837
21
-90.5773
0
LINE
8
BLACK
6
CONTINUOUS
10
121.837
20
-90.5773
11
121.85
21
-90.575
0
LINE
8
BLACK
6
CONTINUOUS
10
121.85
20
-90.575
11
154.275
21
-90.575
0
LINE
8
BLACK
6
CONTINUOUS
10
154.275
20
-90.575
11
154.288
21
-90.5773
0
LINE
8
BLACK
6
CONTINUOUS
10
122.1
20
-115.55
11
123.3
21
-115.55
0
LINE
8
BLACK
6
CONTINUOUS
10
123.3
20
-115.55
11
123.3
21
-116.45
0
LINE
8
BLACK
6
CONTINUOUS
10
123.3
20
-116.45
11
122.1
21
-116.45
0
LINE
8
BLACK
6
CONTINUOUS
10
122.1
20
-116.45
11
122.1
21
-116.25
0
LINE
8
BLACK
6
CONTINUOUS
10
122.1
20
-116.25
11
117.35
21
-116.25
0
LINE
8
BLACK
6
CONTINUOUS
10
117.35
20
-116.25
11
117.35
21
-117.65
0
LINE
8
BLACK
6
CONTINUOUS
10
117.35
20
-117.65
11
122.25
21
-117.65
0
LINE
8
BLACK
6
CONTINUOUS
10
122.25
20
-117.65
11
122.25
21
-118.55
0
LINE
8
BLACK
6
CONTINUOUS
10
122.25
20
-118.55
11
116.85
21
-118.55
0
LINE
8
BLACK
6
CONTINUOUS
10
116.85
20
-118.55
11
116.85
21
-113.55
0
LINE
8
BLACK
6
CONTINUOUS
10
116.85
20
-113.55
11
119.49
21
-113.55
0
LINE
8
BLACK
6
CONTINUOUS
10
119.49
20
-113.55
11
119.49
21
-111.55
0
LINE
8
BLACK
6
CONTINUOUS
10
119.49
20
-111.55
11
116.85
21
-111.55
0
LINE
8
BLACK
6
CONTINUOUS
10
116.85
20
-111.55
11
116.85
21
-108.85
0
LINE
8
BLACK
6
CONTINUOUS
10
116.85
20
-108.85
11
119.49
21
-108.85
0
LINE
8
BLACK
6
CONTINUOUS
10
119.49
20
-108.85
11
119.49
21
-106.85
0
LINE
8
BLACK
6
CONTINUOUS
10
119.49
20
-106.85
11
116.85
21
-106.85
0
LINE
8
BLACK
6
CONTINUOUS
10
116.85
20
-106.85
11
116.85
21
-104.15
0
LINE
8
BLACK
6
CONTINUOUS
10
116.85
20
-104.15
11
121.29
21
-104.15
0
LINE
8
BLACK
6
CONTINUOUS
10
121.29
20
-104.15
11
121.29
21
-104.65
0
LINE
8
BLACK
6
CONTINUOUS
10
121.29
20
-104.65
11
117.35
21
-104.65
0
LINE
8
BLACK
6
CONTINUOUS
10
117.35
20
-104.65
11
117.35
21
-106.35
0
LINE
8
BLACK
6
CONTINUOUS
10
117.35
20
-106.35
11
119.99
21
-106.35
0
LINE
8
BLACK
6
CONTINUOUS
10
119.99
20
-106.35
11
119.99
21
-109.35
0
LINE
8
BLACK
6
CONTINUOUS
10
119.99
20
-109.35
11
117.35
21
-109.35
0
LINE
8
BLACK
6
CONTINUOUS
10
117.35
20
-109.35
11
117.35
21
-111.05
0
LINE
8
BLACK
6
CONTINUOUS
10
117.35
20
-111.05
11
119.99
21
-111.05
0
LINE
8
BLACK
6
CONTINUOUS
10
119.99
20
-111.05
11
119.99
21
-114.05
0
LINE
8
BLACK
6
CONTINUOUS
10
119.99
20
-114.05
11
117.35
21
-114.05
0
LINE
8
BLACK
6
CONTINUOUS
10
117.35
20
-114.05
11
117.35
21
-115.75
0
LINE
8
BLACK
6
CONTINUOUS
10
117.35
20
-115.75
11
122.1
21
-115.75
0
LINE
8
BLACK
6
CONTINUOUS
10
122.1
20
-115.75
11
122.1
21
-115.55
0
LINE
8
BLACK
6
CONTINUOUS
10
148.847
20
-115.046
11
149.153
21
-115.222
0
LINE
8
BLACK
6
CONTINUOUS
10
149.153
20
-115.222
11
149.379
21
-115.492
0
LINE
8
BLACK
6
CONTINUOUS
10
149.379
20
-115.492
11
149.5
21
-115.824
0
LINE
8
BLACK
6
CONTINUOUS
10
149.5
20
-115.824
11
149.5
21
-116.176
0
LINE
8
BLACK
6
CONTINUOUS
10
149.5
20
-116.176
11
149.379
21
-116.508
0
LINE
8
BLACK
6
CONTINUOUS
10
149.379
20
-116.508
11
149.153
21
-116.778
0
LINE
8
BLACK
6
CONTINUOUS
10
149.153
20
-116.778
11
148.847
21
-116.954
0
LINE
8
BLACK
6
CONTINUOUS
10
148.847
20
-116.954
11
148.5
21
-117.015
0
LINE
8
BLACK
6
CONTINUOUS
10
148.5
20
-117.015
11
148.153
21
-116.954
0
LINE
8
BLACK
6
CONTINUOUS
10
148.153
20
-116.954
11
147.847
21
-116.778
0
LINE
8
BLACK
6
CONTINUOUS
10
147.847
20
-116.778
11
147.621
21
-116.508
0
LINE
8
BLACK
6
CONTINUOUS
10
147.621
20
-116.508
11
147.527
21
-116.25
0
LINE
8
BLACK
6
CONTINUOUS
10
147.527
20
-116.25
11
125.5
21
-116.25
0
LINE
8
BLACK
6
CONTINUOUS
10
125.5
20
-116.25
11
125.5
21
-116.45
0
LINE
8
BLACK
6
CONTINUOUS
10
125.5
20
-116.45
11
124.3
21
-116.45
0
LINE
8
BLACK
6
CONTINUOUS
10
124.3
20
-116.45
11
124.3
21
-115.55
0
LINE
8
BLACK
6
CONTINUOUS
10
124.3
20
-115.55
11
125.5
21
-115.55
0
LINE
8
BLACK
6
CONTINUOUS
10
125.5
20
-115.55
11
125.5
21
-115.75
0
LINE
8
BLACK
6
CONTINUOUS
10
125.5
20
-115.75
11
147.527
21
-115.75
0
LINE
8
BLACK
6
CONTINUOUS
10
147.527
20
-115.75
11
147.621
21
-115.492
0
LINE
8
BLACK
6
CONTINUOUS
10
147.621
20
-115.492
11
147.847
21
-115.222
0
LINE
8
BLACK
6
CONTINUOUS
10
147.847
20
-115.222
11
148.153
21
-115.046
0
LINE
8
BLACK
6
CONTINUOUS
10
148.153
20
-115.046
11
148.5
21
-114.985
0
LINE
8
BLACK
6
CONTINUOUS
10
148.5
20
-114.985
11
148.847
21
-115.046
  0
ENDSEC
  0
EOF
