<?xml version='1.0' encoding='UTF-8' standalone='no'?>
<svg height="592pt" xmlns:xlink="http://www.w3.org/1999/xlink" viewBox="0 0 637 592" xmlns="http://www.w3.org/2000/svg" width="637pt">
 <title>Figure 1</title>
 <desc>
Creator: GL2PS 1.4.2, (C) 1999-2020 C. Geuzaine
For: Octave
CreationDate: Mon Mar 18 12:49:35 2024
</desc>
 <defs/>
 <polygon fill="#ffffff" points="0,0 637,0 637,592 0,592"/>
 <g>
  <polygon fill="#ffffff" points="0,592 637,592 637,0 0,0" shape-rendering="crispEdges"/>
  <clipPath id="cp00637592">
   <polygon points="0,592 637,592 637,0 0,0"/>
  </clipPath>
  <g clip-path="url(#cp00637592)">
   <polygon fill="#000000" points="437.875,419.985 410.737,419.985 383.6,419.985 370.032,419.985 356.463,419.985 342.894,419.985 329.326,419.985 315.757,419.985 302.189,419.985 275.051,419.985 261.483,419.985 247.914,419.985 220.777,419.985 220.777,396.511 220.777,373.037 220.777,349.564 220.777,326.09 220.777,279.143 220.777,232.195 220.777,185.248 220.777,138.301 220.777,91.3533 220.777,44.4059 242.487,53.0898 283.735,83.4835 309.787,120.39 320.642,152.955 324.984,194.203 324.984,261.504 324.984,295.154 324.984,311.979 324.984,320.391 324.984,328.804 316.3,330.975 305.445,337.488 298.932,346.172 294.59,354.856 292.821,365.71 294.59,376.565 298.932,385.249 303.274,391.762 309.787,396.104 318.471,400.446 327.155,402.617 342.352,400.446 353.207,393.933 357.548,389.591 361.89,383.078 364.061,378.736 366.232,367.881 366.232,359.198 361.89,346.172 353.207,337.488 342.352,330.975 333.668,328.804 333.668,320.391 333.668,311.979 333.668,295.154 333.668,261.504 333.668,194.203 338.01,152.955 348.865,120.39 374.916,83.4835 416.165,53.0898 437.875,44.4059 437.875,91.3533 437.875,138.301 437.875,185.248 437.875,232.195 437.875,279.143 437.875,326.09 437.875,373.037 437.875,396.511" shape-rendering="crispEdges"/>
   <polyline stroke-linecap="butt" fill="none" stroke-width="0.5" stroke="#ffffff" stroke-linejoin="miter" points="437.875,419.985 410.737,419.985 437.875,396.511 437.875,419.985"/>
   <polyline stroke-linecap="butt" fill="none" stroke-width="0.5" stroke="#ffffff" stroke-linejoin="miter" points="437.875,373.037 406.946,360.847 437.875,326.09 437.875,373.037"/>
   <polyline stroke-linecap="butt" fill="none" stroke-width="0.5" stroke="#ffffff" stroke-linejoin="miter" points="437.875,232.195 386.837,194.704 437.875,185.248 437.875,232.195"/>
   <polyline stroke-linecap="butt" fill="none" stroke-width="0.5" stroke="#ffffff" stroke-linejoin="miter" points="437.875,91.3533 374.916,83.4835 416.165,53.0898 437.875,91.3533"/>
   <polyline stroke-linecap="butt" fill="none" stroke-width="0.5" stroke="#ffffff" stroke-linejoin="miter" points="283.735,83.4835 220.777,91.3533 242.487,53.0898 283.735,83.4835"/>
   <polyline stroke-linecap="butt" fill="none" stroke-width="0.5" stroke="#ffffff" stroke-linejoin="miter" points="257.897,272.315 220.777,279.143 220.777,232.195 257.897,272.315"/>
   <polyline stroke-linecap="butt" fill="none" stroke-width="0.5" stroke="#ffffff" stroke-linejoin="miter" points="280.961,235.557 257.897,272.315 220.777,232.195 280.961,235.557"/>
   <polyline stroke-linecap="butt" fill="none" stroke-width="0.5" stroke="#ffffff" stroke-linejoin="miter" points="324.984,295.154 293.958,280.515 324.984,261.504 324.984,295.154"/>
   <polyline stroke-linecap="butt" fill="none" stroke-width="0.5" stroke="#ffffff" stroke-linejoin="miter" points="293.958,280.515 280.159,306.845 257.897,272.315 293.958,280.515"/>
   <polyline stroke-linecap="butt" fill="none" stroke-width="0.5" stroke="#ffffff" stroke-linejoin="miter" points="324.984,261.504 293.958,280.515 280.961,235.557 324.984,261.504"/>
   <polyline stroke-linecap="butt" fill="none" stroke-width="0.5" stroke="#ffffff" stroke-linejoin="miter" points="293.958,280.515 257.897,272.315 280.961,235.557 293.958,280.515"/>
   <polyline stroke-linecap="butt" fill="none" stroke-width="0.5" stroke="#ffffff" stroke-linejoin="miter" points="306.2,304.975 280.159,306.845 293.958,280.515 306.2,304.975"/>
   <polyline stroke-linecap="butt" fill="none" stroke-width="0.5" stroke="#ffffff" stroke-linejoin="miter" points="324.984,295.154 306.2,304.975 293.958,280.515 324.984,295.154"/>
   <polyline stroke-linecap="butt" fill="none" stroke-width="0.5" stroke="#ffffff" stroke-linejoin="miter" points="437.875,396.511 414.954,389.893 437.875,373.037 437.875,396.511"/>
   <polyline stroke-linecap="butt" fill="none" stroke-width="0.5" stroke="#ffffff" stroke-linejoin="miter" points="437.875,373.037 414.954,389.893 406.946,360.847 437.875,373.037"/>
   <polyline stroke-linecap="butt" fill="none" stroke-width="0.5" stroke="#ffffff" stroke-linejoin="miter" points="437.875,396.511 410.737,419.985 414.954,389.893 437.875,396.511"/>
   <polyline stroke-linecap="butt" fill="none" stroke-width="0.5" stroke="#ffffff" stroke-linejoin="miter" points="437.875,279.143 402.077,245.095 437.875,232.195 437.875,279.143 391.19,278.388 402.077,245.095 437.875,279.143"/>
   <polyline stroke-linecap="butt" fill="none" stroke-width="0.5" stroke="#ffffff" stroke-linejoin="miter" points="437.875,232.195 402.077,245.095 386.837,194.704 437.875,232.195"/>
   <polyline stroke-linecap="butt" fill="none" stroke-width="0.5" stroke="#ffffff" stroke-linejoin="miter" points="437.875,91.3533 395.654,138.61 374.916,83.4835 437.875,91.3533"/>
   <polyline stroke-linecap="butt" fill="none" stroke-width="0.5" stroke="#ffffff" stroke-linejoin="miter" points="437.875,138.301 395.654,138.61 437.875,91.3533 437.875,138.301"/>
   <polyline stroke-linecap="butt" fill="none" stroke-width="0.5" stroke="#ffffff" stroke-linejoin="miter" points="437.875,185.248 395.654,138.61 437.875,138.301 437.875,185.248 386.837,194.704 395.654,138.61 437.875,185.248"/>
   <polyline stroke-linecap="butt" fill="none" stroke-width="0.5" stroke="#ffffff" stroke-linejoin="miter" points="437.875,91.3533 416.165,53.0898 437.875,44.4059 437.875,91.3533"/>
   <polyline stroke-linecap="butt" fill="none" stroke-width="0.5" stroke="#ffffff" stroke-linejoin="miter" points="242.487,53.0898 220.777,91.3533 220.777,44.4059 242.487,53.0898"/>
   <polyline stroke-linecap="butt" fill="none" stroke-width="0.5" stroke="#ffffff" stroke-linejoin="miter" points="324.984,261.504 280.961,235.557 324.984,194.203 324.984,261.504"/>
   <polyline stroke-linecap="butt" fill="none" stroke-width="0.5" stroke="#ffffff" stroke-linejoin="miter" points="262.787,138.412 220.777,185.248 220.777,138.301 262.787,138.412"/>
   <polyline stroke-linecap="butt" fill="none" stroke-width="0.5" stroke="#ffffff" stroke-linejoin="miter" points="283.735,83.4835 262.787,138.412 220.777,91.3533 283.735,83.4835"/>
   <polyline stroke-linecap="butt" fill="none" stroke-width="0.5" stroke="#ffffff" stroke-linejoin="miter" points="262.787,138.412 220.777,138.301 220.777,91.3533 262.787,138.412"/>
   <polyline stroke-linecap="butt" fill="none" stroke-width="0.5" stroke="#ffffff" stroke-linejoin="miter" points="302.189,419.985 275.051,419.985 297.369,405.889 302.189,419.985"/>
   <polyline stroke-linecap="butt" fill="none" stroke-width="0.5" stroke="#ffffff" stroke-linejoin="miter" points="280.159,306.845 247.914,309.574 257.897,272.315 280.159,306.845"/>
   <polyline stroke-linecap="butt" fill="none" stroke-width="0.5" stroke="#ffffff" stroke-linejoin="miter" points="257.897,272.315 247.914,309.574 220.777,279.143 257.897,272.315"/>
   <polyline stroke-linecap="butt" fill="none" stroke-width="0.5" stroke="#ffffff" stroke-linejoin="miter" points="250.126,362.004 220.777,349.564 243.285,338.313 250.126,362.004"/>
   <polyline stroke-linecap="butt" fill="none" stroke-width="0.5" stroke="#ffffff" stroke-linejoin="miter" points="383.6,419.985 370.032,419.985 373.346,404.836 383.6,419.985"/>
   <polyline stroke-linecap="butt" fill="none" stroke-width="0.5" stroke="#ffffff" stroke-linejoin="miter" points="342.894,419.985 329.326,419.985 342.352,400.446 342.894,419.985"/>
   <polyline stroke-linecap="butt" fill="none" stroke-width="0.5" stroke="#ffffff" stroke-linejoin="miter" points="402.077,245.095 364.459,239.362 386.837,194.704 402.077,245.095"/>
   <polyline stroke-linecap="butt" fill="none" stroke-width="0.5" stroke="#ffffff" stroke-linejoin="miter" points="391.19,278.388 359.758,280.908 364.459,239.362 391.19,278.388"/>
   <polyline stroke-linecap="butt" fill="none" stroke-width="0.5" stroke="#ffffff" stroke-linejoin="miter" points="402.077,245.095 391.19,278.388 364.459,239.362 402.077,245.095"/>
   <polyline stroke-linecap="butt" fill="none" stroke-width="0.5" stroke="#ffffff" stroke-linejoin="miter" points="395.654,138.61 348.865,120.39 374.916,83.4835 395.654,138.61 386.837,194.704 338.01,152.955 395.654,138.61 338.01,152.955 348.865,120.39 395.654,138.61"/>
   <polyline stroke-linecap="butt" fill="none" stroke-width="0.5" stroke="#ffffff" stroke-linejoin="miter" points="309.787,120.39 262.787,138.412 283.735,83.4835 309.787,120.39"/>
   <polyline stroke-linecap="butt" fill="none" stroke-width="0.5" stroke="#ffffff" stroke-linejoin="miter" points="320.642,152.955 262.787,138.412 309.787,120.39 320.642,152.955"/>
   <polyline stroke-linecap="butt" fill="none" stroke-width="0.5" stroke="#ffffff" stroke-linejoin="miter" points="270.468,189.337 220.777,185.248 262.787,138.412 270.468,189.337 220.777,232.195 220.777,185.248 270.468,189.337"/>
   <polyline stroke-linecap="butt" fill="none" stroke-width="0.5" stroke="#ffffff" stroke-linejoin="miter" points="280.961,235.557 220.777,232.195 270.468,189.337 280.961,235.557"/>
   <polyline stroke-linecap="butt" fill="none" stroke-width="0.5" stroke="#ffffff" stroke-linejoin="miter" points="324.984,194.203 280.961,235.557 270.468,189.337 324.984,194.203 270.468,189.337 320.642,152.955 324.984,194.203"/>
   <polyline stroke-linecap="butt" fill="none" stroke-width="0.5" stroke="#ffffff" stroke-linejoin="miter" points="320.642,152.955 270.468,189.337 262.787,138.412 320.642,152.955"/>
   <polyline stroke-linecap="butt" fill="none" stroke-width="0.5" stroke="#ffffff" stroke-linejoin="miter" points="329.326,419.985 315.757,419.985 320.391,410.61 329.326,419.985"/>
   <polyline stroke-linecap="butt" fill="none" stroke-width="0.5" stroke="#ffffff" stroke-linejoin="miter" points="266.757,336.021 250.126,362.004 243.285,338.313 266.757,336.021"/>
   <polyline stroke-linecap="butt" fill="none" stroke-width="0.5" stroke="#ffffff" stroke-linejoin="miter" points="280.159,306.845 266.757,336.021 247.914,309.574 280.159,306.845"/>
   <polyline stroke-linecap="butt" fill="none" stroke-width="0.5" stroke="#ffffff" stroke-linejoin="miter" points="266.757,336.021 243.285,338.313 247.914,309.574 266.757,336.021"/>
   <polyline stroke-linecap="butt" fill="none" stroke-width="0.5" stroke="#ffffff" stroke-linejoin="miter" points="298.932,385.249 291.432,395.147 283.06,385.915 298.932,385.249"/>
   <polyline stroke-linecap="butt" fill="none" stroke-width="0.5" stroke="#ffffff" stroke-linejoin="miter" points="261.483,419.985 247.914,419.985 255.465,402.981 261.483,419.985"/>
   <polyline stroke-linecap="butt" fill="none" stroke-width="0.5" stroke="#ffffff" stroke-linejoin="miter" points="250.126,362.004 220.777,373.037 220.777,349.564 250.126,362.004"/>
   <polyline stroke-linecap="butt" fill="none" stroke-width="0.5" stroke="#ffffff" stroke-linejoin="miter" points="247.914,309.574 243.285,338.313 220.777,326.09 247.914,309.574"/>
   <polyline stroke-linecap="butt" fill="none" stroke-width="0.5" stroke="#ffffff" stroke-linejoin="miter" points="243.285,338.313 220.777,349.564 220.777,326.09 243.285,338.313"/>
   <polyline stroke-linecap="butt" fill="none" stroke-width="0.5" stroke="#ffffff" stroke-linejoin="miter" points="247.914,309.574 220.777,326.09 220.777,279.143 247.914,309.574"/>
   <polyline stroke-linecap="butt" fill="none" stroke-width="0.5" stroke="#ffffff" stroke-linejoin="miter" points="324.984,311.979 306.2,304.975 324.984,295.154 324.984,311.979"/>
   <polyline stroke-linecap="butt" fill="none" stroke-width="0.5" stroke="#ffffff" stroke-linejoin="miter" points="393.437,403.069 383.6,419.985 373.346,404.836 393.437,403.069"/>
   <polyline stroke-linecap="butt" fill="none" stroke-width="0.5" stroke="#ffffff" stroke-linejoin="miter" points="410.737,419.985 383.6,419.985 393.437,403.069 410.737,419.985"/>
   <polyline stroke-linecap="butt" fill="none" stroke-width="0.5" stroke="#ffffff" stroke-linejoin="miter" points="414.954,389.893 410.737,419.985 393.437,403.069 414.954,389.893"/>
   <polyline stroke-linecap="butt" fill="none" stroke-width="0.5" stroke="#ffffff" stroke-linejoin="miter" points="406.946,360.847 381.068,363.33 383.467,344.888 406.946,360.847"/>
   <polyline stroke-linecap="butt" fill="none" stroke-width="0.5" stroke="#ffffff" stroke-linejoin="miter" points="364.459,239.362 359.758,280.908 333.668,261.504 364.459,239.362"/>
   <polyline stroke-linecap="butt" fill="none" stroke-width="0.5" stroke="#ffffff" stroke-linejoin="miter" points="359.758,280.908 333.668,295.154 333.668,261.504 359.758,280.908"/>
   <polyline stroke-linecap="butt" fill="none" stroke-width="0.5" stroke="#ffffff" stroke-linejoin="miter" points="386.837,194.704 364.459,239.362 333.668,194.203 386.837,194.704 333.668,194.203 338.01,152.955 386.837,194.704"/>
   <polyline stroke-linecap="butt" fill="none" stroke-width="0.5" stroke="#ffffff" stroke-linejoin="miter" points="364.459,239.362 333.668,261.504 333.668,194.203 364.459,239.362"/>
   <polyline stroke-linecap="butt" fill="none" stroke-width="0.5" stroke="#ffffff" stroke-linejoin="miter" points="303.274,391.762 291.432,395.147 298.932,385.249 303.274,391.762 297.369,405.889 291.432,395.147 303.274,391.762"/>
   <polyline stroke-linecap="butt" fill="none" stroke-width="0.5" stroke="#ffffff" stroke-linejoin="miter" points="309.787,396.104 297.369,405.889 303.274,391.762 309.787,396.104 309.683,407.882 297.369,405.889 309.787,396.104"/>
   <polyline stroke-linecap="butt" fill="none" stroke-width="0.5" stroke="#ffffff" stroke-linejoin="miter" points="309.683,407.882 302.189,419.985 297.369,405.889 309.683,407.882"/>
   <polyline stroke-linecap="butt" fill="none" stroke-width="0.5" stroke="#ffffff" stroke-linejoin="miter" points="318.471,400.446 309.683,407.882 309.787,396.104 318.471,400.446"/>
   <polyline stroke-linecap="butt" fill="none" stroke-width="0.5" stroke="#ffffff" stroke-linejoin="miter" points="320.391,410.61 309.683,407.882 318.471,400.446 320.391,410.61"/>
   <polyline stroke-linecap="butt" fill="none" stroke-width="0.5" stroke="#ffffff" stroke-linejoin="miter" points="315.757,419.985 302.189,419.985 309.683,407.882 315.757,419.985"/>
   <polyline stroke-linecap="butt" fill="none" stroke-width="0.5" stroke="#ffffff" stroke-linejoin="miter" points="320.391,410.61 315.757,419.985 309.683,407.882 320.391,410.61"/>
   <polyline stroke-linecap="butt" fill="none" stroke-width="0.5" stroke="#ffffff" stroke-linejoin="miter" points="327.155,402.617 320.391,410.61 318.471,400.446 327.155,402.617"/>
   <polyline stroke-linecap="butt" fill="none" stroke-width="0.5" stroke="#ffffff" stroke-linejoin="miter" points="342.352,400.446 329.326,419.985 327.155,402.617 342.352,400.446"/>
   <polyline stroke-linecap="butt" fill="none" stroke-width="0.5" stroke="#ffffff" stroke-linejoin="miter" points="329.326,419.985 320.391,410.61 327.155,402.617 329.326,419.985"/>
   <polyline stroke-linecap="butt" fill="none" stroke-width="0.5" stroke="#ffffff" stroke-linejoin="miter" points="294.59,354.856 292.821,365.71 276.132,356.431 294.59,354.856"/>
   <polyline stroke-linecap="butt" fill="none" stroke-width="0.5" stroke="#ffffff" stroke-linejoin="miter" points="292.821,365.71 275.631,372.655 276.132,356.431 292.821,365.71"/>
   <polyline stroke-linecap="butt" fill="none" stroke-width="0.5" stroke="#ffffff" stroke-linejoin="miter" points="276.132,356.431 275.631,372.655 250.126,362.004 276.132,356.431 250.126,362.004 266.757,336.021 276.132,356.431"/>
   <polyline stroke-linecap="butt" fill="none" stroke-width="0.5" stroke="#ffffff" stroke-linejoin="miter" points="289.514,330.988 266.757,336.021 280.159,306.845 289.514,330.988"/>
   <polyline stroke-linecap="butt" fill="none" stroke-width="0.5" stroke="#ffffff" stroke-linejoin="miter" points="298.932,385.249 283.06,385.915 294.59,376.565 298.932,385.249"/>
   <polyline stroke-linecap="butt" fill="none" stroke-width="0.5" stroke="#ffffff" stroke-linejoin="miter" points="294.59,376.565 283.06,385.915 275.631,372.655 294.59,376.565 275.631,372.655 292.821,365.71 294.59,376.565"/>
   <polyline stroke-linecap="butt" fill="none" stroke-width="0.5" stroke="#ffffff" stroke-linejoin="miter" points="283.06,385.915 262.819,385.274 275.631,372.655 283.06,385.915"/>
   <polyline stroke-linecap="butt" fill="none" stroke-width="0.5" stroke="#ffffff" stroke-linejoin="miter" points="275.631,372.655 262.819,385.274 250.126,362.004 275.631,372.655"/>
   <polyline stroke-linecap="butt" fill="none" stroke-width="0.5" stroke="#ffffff" stroke-linejoin="miter" points="255.465,402.981 247.914,419.985 237.233,406.027 255.465,402.981"/>
   <polyline stroke-linecap="butt" fill="none" stroke-width="0.5" stroke="#ffffff" stroke-linejoin="miter" points="247.914,419.985 220.777,419.985 237.233,406.027 247.914,419.985"/>
   <polyline stroke-linecap="butt" fill="none" stroke-width="0.5" stroke="#ffffff" stroke-linejoin="miter" points="237.233,406.027 220.777,419.985 220.777,396.511 237.233,406.027"/>
   <polyline stroke-linecap="butt" fill="none" stroke-width="0.5" stroke="#ffffff" stroke-linejoin="miter" points="275.39,403.968 275.051,419.985 261.483,419.985 275.39,403.968 261.483,419.985 255.465,402.981 275.39,403.968"/>
   <polyline stroke-linecap="butt" fill="none" stroke-width="0.5" stroke="#ffffff" stroke-linejoin="miter" points="291.432,395.147 275.39,403.968 283.06,385.915 291.432,395.147"/>
   <polyline stroke-linecap="butt" fill="none" stroke-width="0.5" stroke="#ffffff" stroke-linejoin="miter" points="283.06,385.915 275.39,403.968 262.819,385.274 283.06,385.915"/>
   <polyline stroke-linecap="butt" fill="none" stroke-width="0.5" stroke="#ffffff" stroke-linejoin="miter" points="275.39,403.968 255.465,402.981 262.819,385.274 275.39,403.968"/>
   <polyline stroke-linecap="butt" fill="none" stroke-width="0.5" stroke="#ffffff" stroke-linejoin="miter" points="297.369,405.889 275.39,403.968 291.432,395.147 297.369,405.889 275.051,419.985 275.39,403.968 297.369,405.889"/>
   <polyline stroke-linecap="butt" fill="none" stroke-width="0.5" stroke="#ffffff" stroke-linejoin="miter" points="324.984,311.979 314.835,318.87 306.2,304.975 324.984,311.979"/>
   <polyline stroke-linecap="butt" fill="none" stroke-width="0.5" stroke="#ffffff" stroke-linejoin="miter" points="393.437,403.069 373.346,404.836 381.27,391.182 393.437,403.069"/>
   <polyline stroke-linecap="butt" fill="none" stroke-width="0.5" stroke="#ffffff" stroke-linejoin="miter" points="355.628,322.149 342.352,330.975 342.552,320.084 355.628,322.149"/>
   <polyline stroke-linecap="butt" fill="none" stroke-width="0.5" stroke="#ffffff" stroke-linejoin="miter" points="383.467,344.888 361.89,346.172 372.384,328.216 383.467,344.888"/>
   <polyline stroke-linecap="butt" fill="none" stroke-width="0.5" stroke="#ffffff" stroke-linejoin="miter" points="437.875,326.09 403.701,316.743 437.875,279.143 437.875,326.09"/>
   <polyline stroke-linecap="butt" fill="none" stroke-width="0.5" stroke="#ffffff" stroke-linejoin="miter" points="437.875,279.143 403.701,316.743 391.19,278.388 437.875,279.143"/>
   <polyline stroke-linecap="butt" fill="none" stroke-width="0.5" stroke="#ffffff" stroke-linejoin="miter" points="403.701,316.743 383.467,344.888 372.384,328.216 403.701,316.743"/>
   <polyline stroke-linecap="butt" fill="none" stroke-width="0.5" stroke="#ffffff" stroke-linejoin="miter" points="437.875,326.09 406.946,360.847 403.701,316.743 437.875,326.09"/>
   <polyline stroke-linecap="butt" fill="none" stroke-width="0.5" stroke="#ffffff" stroke-linejoin="miter" points="406.946,360.847 383.467,344.888 403.701,316.743 406.946,360.847"/>
   <polyline stroke-linecap="butt" fill="none" stroke-width="0.5" stroke="#ffffff" stroke-linejoin="miter" points="381.068,363.33 373.133,373.875 366.232,367.881 381.068,363.33"/>
   <polyline stroke-linecap="butt" fill="none" stroke-width="0.5" stroke="#ffffff" stroke-linejoin="miter" points="373.346,404.836 356.686,408.525 361.872,398.603 373.346,404.836"/>
   <polyline stroke-linecap="butt" fill="none" stroke-width="0.5" stroke="#ffffff" stroke-linejoin="miter" points="370.032,419.985 356.463,419.985 356.686,408.525 370.032,419.985"/>
   <polyline stroke-linecap="butt" fill="none" stroke-width="0.5" stroke="#ffffff" stroke-linejoin="miter" points="373.346,404.836 370.032,419.985 356.686,408.525 373.346,404.836"/>
   <polyline stroke-linecap="butt" fill="none" stroke-width="0.5" stroke="#ffffff" stroke-linejoin="miter" points="356.686,408.525 356.463,419.985 342.894,419.985 356.686,408.525 342.894,419.985 342.352,400.446 356.686,408.525"/>
   <polyline stroke-linecap="butt" fill="none" stroke-width="0.5" stroke="#ffffff" stroke-linejoin="miter" points="305.445,337.488 298.932,346.172 289.514,330.988 305.445,337.488"/>
   <polyline stroke-linecap="butt" fill="none" stroke-width="0.5" stroke="#ffffff" stroke-linejoin="miter" points="285.942,345.279 276.132,356.431 266.757,336.021 285.942,345.279"/>
   <polyline stroke-linecap="butt" fill="none" stroke-width="0.5" stroke="#ffffff" stroke-linejoin="miter" points="289.514,330.988 285.942,345.279 266.757,336.021 289.514,330.988"/>
   <polyline stroke-linecap="butt" fill="none" stroke-width="0.5" stroke="#ffffff" stroke-linejoin="miter" points="294.59,354.856 276.132,356.431 285.942,345.279 294.59,354.856"/>
   <polyline stroke-linecap="butt" fill="none" stroke-width="0.5" stroke="#ffffff" stroke-linejoin="miter" points="298.932,346.172 294.59,354.856 285.942,345.279 298.932,346.172 285.942,345.279 289.514,330.988 298.932,346.172"/>
   <polyline stroke-linecap="butt" fill="none" stroke-width="0.5" stroke="#ffffff" stroke-linejoin="miter" points="250.126,362.004 241.45,386.237 220.777,373.037 250.126,362.004"/>
   <polyline stroke-linecap="butt" fill="none" stroke-width="0.5" stroke="#ffffff" stroke-linejoin="miter" points="262.819,385.274 241.45,386.237 250.126,362.004 262.819,385.274"/>
   <polyline stroke-linecap="butt" fill="none" stroke-width="0.5" stroke="#ffffff" stroke-linejoin="miter" points="241.45,386.237 220.777,396.511 220.777,373.037 241.45,386.237 237.233,406.027 220.777,396.511 241.45,386.237"/>
   <polyline stroke-linecap="butt" fill="none" stroke-width="0.5" stroke="#ffffff" stroke-linejoin="miter" points="262.819,385.274 255.465,402.981 241.45,386.237 262.819,385.274"/>
   <polyline stroke-linecap="butt" fill="none" stroke-width="0.5" stroke="#ffffff" stroke-linejoin="miter" points="255.465,402.981 237.233,406.027 241.45,386.237 255.465,402.981"/>
   <polyline stroke-linecap="butt" fill="none" stroke-width="0.5" stroke="#ffffff" stroke-linejoin="miter" points="342.552,320.084 333.668,320.391 333.668,311.979 342.552,320.084"/>
   <polyline stroke-linecap="butt" fill="none" stroke-width="0.5" stroke="#ffffff" stroke-linejoin="miter" points="314.835,318.87 302.149,321.674 306.2,304.975 314.835,318.87"/>
   <polyline stroke-linecap="butt" fill="none" stroke-width="0.5" stroke="#ffffff" stroke-linejoin="miter" points="306.2,304.975 302.149,321.674 280.159,306.845 306.2,304.975"/>
   <polyline stroke-linecap="butt" fill="none" stroke-width="0.5" stroke="#ffffff" stroke-linejoin="miter" points="302.149,321.674 289.514,330.988 280.159,306.845 302.149,321.674"/>
   <polyline stroke-linecap="butt" fill="none" stroke-width="0.5" stroke="#ffffff" stroke-linejoin="miter" points="305.445,337.488 289.514,330.988 302.149,321.674 305.445,337.488"/>
   <polyline stroke-linecap="butt" fill="none" stroke-width="0.5" stroke="#ffffff" stroke-linejoin="miter" points="373.346,404.836 361.872,398.603 367.934,391.464 373.346,404.836"/>
   <polyline stroke-linecap="butt" fill="none" stroke-width="0.5" stroke="#ffffff" stroke-linejoin="miter" points="381.27,391.182 373.346,404.836 367.934,391.464 381.27,391.182 367.934,391.464 371.591,383.536 381.27,391.182"/>
   <polyline stroke-linecap="butt" fill="none" stroke-width="0.5" stroke="#ffffff" stroke-linejoin="miter" points="367.934,391.464 361.872,398.603 357.548,389.591 367.934,391.464"/>
   <polyline stroke-linecap="butt" fill="none" stroke-width="0.5" stroke="#ffffff" stroke-linejoin="miter" points="414.954,389.893 393.437,403.069 396.222,383.792 414.954,389.893"/>
   <polyline stroke-linecap="butt" fill="none" stroke-width="0.5" stroke="#ffffff" stroke-linejoin="miter" points="396.222,383.792 393.437,403.069 381.27,391.182 396.222,383.792"/>
   <polyline stroke-linecap="butt" fill="none" stroke-width="0.5" stroke="#ffffff" stroke-linejoin="miter" points="414.954,389.893 396.222,383.792 406.946,360.847 414.954,389.893"/>
   <polyline stroke-linecap="butt" fill="none" stroke-width="0.5" stroke="#ffffff" stroke-linejoin="miter" points="372.849,305.533 372.384,328.216 355.628,322.149 372.849,305.533"/>
   <polyline stroke-linecap="butt" fill="none" stroke-width="0.5" stroke="#ffffff" stroke-linejoin="miter" points="391.19,278.388 372.849,305.533 359.758,280.908 391.19,278.388"/>
   <polyline stroke-linecap="butt" fill="none" stroke-width="0.5" stroke="#ffffff" stroke-linejoin="miter" points="403.701,316.743 372.849,305.533 391.19,278.388 403.701,316.743 372.384,328.216 372.849,305.533 403.701,316.743"/>
   <polyline stroke-linecap="butt" fill="none" stroke-width="0.5" stroke="#ffffff" stroke-linejoin="miter" points="355.628,322.149 353.207,337.488 342.352,330.975 355.628,322.149"/>
   <polyline stroke-linecap="butt" fill="none" stroke-width="0.5" stroke="#ffffff" stroke-linejoin="miter" points="372.384,328.216 353.207,337.488 355.628,322.149 372.384,328.216 361.89,346.172 353.207,337.488 372.384,328.216"/>
   <polyline stroke-linecap="butt" fill="none" stroke-width="0.5" stroke="#ffffff" stroke-linejoin="miter" points="373.133,373.875 371.591,383.536 364.061,378.736 373.133,373.875 364.061,378.736 366.232,367.881 373.133,373.875"/>
   <polyline stroke-linecap="butt" fill="none" stroke-width="0.5" stroke="#ffffff" stroke-linejoin="miter" points="361.872,398.603 353.207,393.933 357.548,389.591 361.872,398.603"/>
   <polyline stroke-linecap="butt" fill="none" stroke-width="0.5" stroke="#ffffff" stroke-linejoin="miter" points="356.686,408.525 342.352,400.446 353.207,393.933 356.686,408.525"/>
   <polyline stroke-linecap="butt" fill="none" stroke-width="0.5" stroke="#ffffff" stroke-linejoin="miter" points="361.872,398.603 356.686,408.525 353.207,393.933 361.872,398.603"/>
   <polyline stroke-linecap="butt" fill="none" stroke-width="0.5" stroke="#ffffff" stroke-linejoin="miter" points="324.984,320.391 314.835,318.87 324.984,311.979 324.984,320.391"/>
   <polyline stroke-linecap="butt" fill="none" stroke-width="0.5" stroke="#ffffff" stroke-linejoin="miter" points="396.222,383.792 381.27,391.182 384.361,376.421 396.222,383.792"/>
   <polyline stroke-linecap="butt" fill="none" stroke-width="0.5" stroke="#ffffff" stroke-linejoin="miter" points="384.361,376.421 381.27,391.182 371.591,383.536 384.361,376.421 371.591,383.536 373.133,373.875 384.361,376.421 373.133,373.875 381.068,363.33 384.361,376.421"/>
   <polyline stroke-linecap="butt" fill="none" stroke-width="0.5" stroke="#ffffff" stroke-linejoin="miter" points="406.946,360.847 384.361,376.421 381.068,363.33 406.946,360.847 396.222,383.792 384.361,376.421 406.946,360.847"/>
   <polyline stroke-linecap="butt" fill="none" stroke-width="0.5" stroke="#ffffff" stroke-linejoin="miter" points="372.849,305.533 355.628,322.149 350.737,305.921 372.849,305.533"/>
   <polyline stroke-linecap="butt" fill="none" stroke-width="0.5" stroke="#ffffff" stroke-linejoin="miter" points="355.628,322.149 342.552,320.084 350.737,305.921 355.628,322.149"/>
   <polyline stroke-linecap="butt" fill="none" stroke-width="0.5" stroke="#ffffff" stroke-linejoin="miter" points="359.758,280.908 350.737,305.921 333.668,295.154 359.758,280.908"/>
   <polyline stroke-linecap="butt" fill="none" stroke-width="0.5" stroke="#ffffff" stroke-linejoin="miter" points="372.849,305.533 350.737,305.921 359.758,280.908 372.849,305.533"/>
   <polyline stroke-linecap="butt" fill="none" stroke-width="0.5" stroke="#ffffff" stroke-linejoin="miter" points="350.737,305.921 333.668,311.979 333.668,295.154 350.737,305.921 342.552,320.084 333.668,311.979 350.737,305.921"/>
   <polyline stroke-linecap="butt" fill="none" stroke-width="0.5" stroke="#ffffff" stroke-linejoin="miter" points="381.068,363.33 366.232,367.881 366.232,359.198 381.068,363.33"/>
   <polyline stroke-linecap="butt" fill="none" stroke-width="0.5" stroke="#ffffff" stroke-linejoin="miter" points="383.467,344.888 381.068,363.33 366.232,359.198 383.467,344.888 366.232,359.198 361.89,346.172 383.467,344.888"/>
   <polyline stroke-linecap="butt" fill="none" stroke-width="0.5" stroke="#ffffff" stroke-linejoin="miter" points="367.934,391.464 357.548,389.591 361.89,383.078 367.934,391.464"/>
   <polyline stroke-linecap="butt" fill="none" stroke-width="0.5" stroke="#ffffff" stroke-linejoin="miter" points="371.591,383.536 367.934,391.464 361.89,383.078 371.591,383.536 361.89,383.078 364.061,378.736 371.591,383.536"/>
   <polyline stroke-linecap="butt" fill="none" stroke-width="0.5" stroke="#ffffff" stroke-linejoin="miter" points="324.984,320.391 316.3,330.975 314.835,318.87 324.984,320.391"/>
   <polyline stroke-linecap="butt" fill="none" stroke-width="0.5" stroke="#ffffff" stroke-linejoin="miter" points="316.3,330.975 305.445,337.488 302.149,321.674 316.3,330.975 302.149,321.674 314.835,318.87 316.3,330.975"/>
   <polyline stroke-linecap="butt" fill="none" stroke-width="0.5" stroke="#ffffff" stroke-linejoin="miter" points="324.984,328.804 316.3,330.975 324.984,320.391 324.984,328.804"/>
   <polyline stroke-linecap="butt" fill="none" stroke-width="0.5" stroke="#ffffff" stroke-linejoin="miter" points="342.552,320.084 342.352,330.975 333.668,328.804 342.552,320.084 333.668,328.804 333.668,320.391 342.552,320.084"/>
  </g>
 </g>
</svg>
